<svg width="1600" height="1100" viewBox="0 0 1600 1100" fill="none" xmlns="http://www.w3.org/2000/svg">
  <rect width="1600" height="1100" rx="40" fill="#FDFAF6"/>
  <rect x="60" y="60" width="1480" height="980" rx="30" fill="#F7EBDD" stroke="#D9C6B6" stroke-width="3" stroke-dasharray="14 14"/>
  <circle cx="1310" cy="180" r="170" fill="#E8650A" fill-opacity="0.15"/>
  <circle cx="260" cy="860" r="180" fill="#1C1917" fill-opacity="0.06"/>
  <rect x="870" y="268" width="280" height="420" rx="34" fill="#1C1917"/>
  <rect x="912" y="316" width="196" height="92" rx="18" fill="#FDFAF6" fill-opacity="0.96"/>
  <rect x="930" y="440" width="52" height="52" rx="12" fill="#FDFAF6" fill-opacity="0.12"/>
  <rect x="994" y="440" width="52" height="52" rx="12" fill="#FDFAF6" fill-opacity="0.12"/>
  <rect x="1058" y="440" width="52" height="52" rx="12" fill="#FDFAF6" fill-opacity="0.12"/>
  <rect x="930" y="504" width="52" height="52" rx="12" fill="#FDFAF6" fill-opacity="0.12"/>
  <rect x="994" y="504" width="52" height="52" rx="12" fill="#FDFAF6" fill-opacity="0.12"/>
  <rect x="1058" y="504" width="52" height="52" rx="12" fill="#FDFAF6" fill-opacity="0.12"/>
  <path d="M422 660C422 576.052 490.052 508 574 508H692C775.948 508 844 576.052 844 660V792H422V660Z" fill="#E4B18E"/>
  <circle cx="632" cy="436" r="82" fill="#F4DBC9"/>
  <rect x="458" y="598" width="322" height="76" rx="30" transform="rotate(-12 458 598)" fill="#E8650A"/>
  <rect x="220" y="900" width="1160" height="70" rx="22" fill="#1C1917" fill-opacity="0.06"/>
  <text x="160" y="985" fill="#1C1917" fill-opacity="0.72" font-family="DM Sans, Arial, sans-serif" font-size="40" font-weight="700">Speed point payment placeholder</text>
  <text x="160" y="1028" fill="#1C1917" fill-opacity="0.55" font-family="DM Sans, Arial, sans-serif" font-size="28">Replace this file with a real checkout photo and keep the same filename.</text>
</svg>